<?xml version="1.0" encoding="UTF-8"?>
<!DOCTYPE svg PUBLIC "-//W3C//DTD SVG 1.1//EN" "http://www.w3.org/Graphics/SVG/1.1/DTD/svg11.dtd">
<svg version="1.1" xmlns="http://www.w3.org/2000/svg" xmlns:xlink="http://www.w3.org/1999/xlink" x="0px" y="0px" width="185.365" height="31.687" viewBox="0, 0, 185.365, 31.687">
  <g id="Layer 1">
    <path d="M168.699,30.687 L172.74,30.687 L172.74,22.107 L172.799,22.107 C172.799,22.107 173.952,24.159 177.125,24.159 C180.946,24.159 184.365,21.081 184.365,15.456 C184.365,9.83 180.699,6.751 177.06,6.751 C173.825,6.751 172.614,8.804 172.614,8.804 L172.554,8.804 L172.554,7.217 L168.701,7.217 L168.701,30.687 z M172.74,13.747 C172.74,11.945 174.076,10.389 176.282,10.389 C178.553,10.389 180.322,12.038 180.322,15.457 C180.322,18.846 178.553,20.524 176.282,20.524 C174.076,20.524 172.74,18.969 172.74,17.134 L172.74,13.747 z M158.41,24.16 C162.732,24.16 166.119,21.082 166.119,15.457 C166.119,9.831 162.512,6.752 158.41,6.752 C154.307,6.752 150.7,9.83 150.7,15.457 C150.7,21.084 154.088,24.16 158.41,24.16 M158.41,20.522 C156.139,20.522 154.677,18.809 154.677,15.456 C154.677,12.098 156.203,10.388 158.41,10.388 C160.618,10.388 162.141,12.161 162.141,15.456 C162.14,18.752 160.678,20.522 158.41,20.522 M134.413,23.693 L138.455,23.693 L138.455,13.341 C138.455,11.758 139.355,10.482 141.314,10.482 C143.364,10.482 144.236,11.911 144.236,13.62 L144.236,23.692 L148.275,23.692 L148.275,12.721 C148.275,9.083 146.038,6.751 142.524,6.751 C140.815,6.751 139.135,7.777 138.516,8.804 L138.455,8.804 L138.455,1 L134.413,1 L134.413,23.693 z M117.781,18.252 C118.219,21.082 120.301,24.16 125.274,24.16 C129.998,24.16 131.992,21.331 131.992,19.03 C131.992,16.73 131.086,15.113 127.018,13.995 C122.696,12.783 122.074,12.534 122.074,11.601 C122.074,10.793 123.005,10.079 124.656,10.079 C126.861,10.079 127.701,11.259 128.198,12.626 L131.554,11.601 C130.747,8.804 128.664,6.751 124.621,6.751 C120.581,6.751 118.407,9.237 118.407,11.786 C118.407,14.335 120.331,15.611 123.939,16.635 C127.294,17.599 128.383,17.785 128.383,18.936 C128.383,20.088 127.108,20.77 125.121,20.77 C122.975,20.77 121.703,19.526 121.421,17.32 L117.781,18.252 z M105.379,13.652 C105.533,11.819 106.839,10.296 108.893,10.296 C111.068,10.296 112.344,11.569 112.53,13.652 L105.379,13.652 z M113.059,18.006 C112.246,19.153 111.128,20.584 109.015,20.584 C106.809,20.584 105.506,19.218 105.379,16.667 L116.446,16.667 L116.446,15.456 C116.446,10.107 113.182,6.751 108.893,6.751 C104.605,6.751 101.278,10.107 101.278,15.456 C101.278,20.801 104.541,24.159 109.081,24.159 C112.5,24.159 114.519,22.48 115.889,20.491 L113.059,18.006 z M84.706,23.693 L88.748,23.693 L88.748,13.621 C88.748,11.725 89.931,10.483 91.92,10.483 C94.126,10.483 94.811,11.758 94.811,13.902 L94.811,23.693 L98.85,23.693 L98.85,12.905 C98.85,9.02 96.643,6.751 93.008,6.751 C91.174,6.751 89.494,7.714 88.658,8.804 L88.594,8.804 L88.594,7.217 L84.706,7.217 L84.706,23.693 z M77,4.825 L81.041,4.825 L81.041,1 L77,1 L77,4.825 z M77,23.693 L81.041,23.693 L81.041,7.217 L77,7.217 L77,23.693 z M69.136,23.693 L73.334,23.693 L73.334,1 L69.136,1 L69.136,23.693 z M58.631,17.816 C58.631,21.734 59.841,23.693 64.443,23.693 L66.151,23.693 L66.151,19.806 L64.818,19.806 C62.95,19.806 62.61,19.091 62.61,17.443 L62.61,10.636 L66.712,10.636 L66.712,7.217 L62.546,7.217 L62.546,3.179 L58.722,3.179 L58.722,7.218 L56.079,7.218 L56.079,10.637 L58.63,10.637 L58.63,17.816 z M40.135,23.693 L44.174,23.693 L44.174,13.621 C44.174,11.725 45.356,10.483 47.346,10.483 C49.553,10.483 50.235,11.758 50.235,13.902 L50.235,23.693 L54.277,23.693 L54.277,12.905 C54.277,9.02 52.068,6.751 48.432,6.751 C46.599,6.751 44.921,7.714 44.082,8.804 L44.02,8.804 L44.02,7.217 L40.135,7.217 L40.135,23.693 z M29.847,24.16 C34.166,24.16 37.555,21.082 37.555,15.457 C37.555,9.831 33.95,6.752 29.847,6.752 C25.743,6.752 22.138,9.83 22.138,15.457 C22.138,21.084 25.527,24.16 29.847,24.16 M29.847,20.522 C27.578,20.522 26.116,18.809 26.116,15.456 C26.116,12.098 27.641,10.388 29.847,10.388 C32.054,10.388 33.577,12.161 33.577,15.456 C33.577,18.752 32.117,20.522 29.847,20.522 M13.122,23.693 L17.164,23.693 L17.164,14.647 C17.164,12.004 18.253,10.886 19.991,10.886 C20.398,10.886 20.833,10.979 21.267,11.133 L21.888,7.217 C21.392,6.998 20.894,6.907 20.398,6.907 C18.935,6.907 17.631,7.747 17.01,8.957 L16.947,8.957 L16.947,7.217 L13.124,7.217 L13.124,23.693 z M3.549,23.693 L7.59,23.693 L7.59,10.636 L11.63,10.636 L11.63,7.217 L7.467,7.217 L7.467,5.882 C7.467,4.918 7.807,4.576 8.803,4.576 L11.196,4.576 L11.196,1 L7.964,1 C5.321,1 3.643,1.933 3.643,4.886 L3.643,7.217 L1,7.217 L1,10.636 L3.548,10.636 L3.548,23.693 z" fill="#1D1D1B"/>
  </g>
  <defs/>
</svg>
